<svg width="117" height="24" viewBox="0 0 117 24" fill="none" xmlns="http://www.w3.org/2000/svg">
<path d="M7.464 5.128C6.84 5.128 6.344 5.28 5.976 5.584C5.624 5.872 5.448 6.264 5.448 6.76C5.448 7.24 5.664 7.624 6.096 7.912C6.544 8.2 7.56 8.544 9.144 8.944C10.744 9.328 11.984 9.912 12.864 10.696C13.744 11.48 14.184 12.624 14.184 14.128C14.184 15.632 13.616 16.856 12.48 17.8C11.36 18.728 9.88 19.192 8.04 19.192C5.384 19.192 2.992 18.208 0.864 16.24L3.096 13.504C4.904 15.088 6.576 15.88 8.112 15.88C8.8 15.88 9.336 15.736 9.72 15.448C10.12 15.144 10.32 14.744 10.32 14.248C10.32 13.736 10.112 13.336 9.696 13.048C9.28 12.744 8.456 12.44 7.224 12.136C5.272 11.672 3.84 11.072 2.928 10.336C2.032 9.584 1.584 8.416 1.584 6.832C1.584 5.232 2.152 4 3.288 3.136C4.44 2.272 5.872 1.84 7.584 1.84C8.704 1.84 9.824 2.032 10.944 2.416C12.064 2.8 13.04 3.344 13.872 4.048L11.976 6.784C10.52 5.68 9.016 5.128 7.464 5.128ZM24.6207 5.872C26.1247 5.872 27.4607 6.504 28.6287 7.768C29.8127 9.016 30.4047 10.592 30.4047 12.496C30.4047 14.4 29.8127 15.992 28.6287 17.272C27.4607 18.552 26.0847 19.192 24.5007 19.192C22.9327 19.192 21.6687 18.56 20.7087 17.296V23.656H17.1087V6.088H20.7087V7.528C21.8127 6.424 23.1167 5.872 24.6207 5.872ZM20.6607 12.568C20.6607 13.608 20.9487 14.464 21.5247 15.136C22.1167 15.792 22.8287 16.12 23.6607 16.12C24.4927 16.12 25.2207 15.792 25.8447 15.136C26.4687 14.464 26.7807 13.608 26.7807 12.568C26.7807 11.528 26.4767 10.656 25.8687 9.952C25.2607 9.248 24.5327 8.896 23.6847 8.896C22.8367 8.896 22.1167 9.248 21.5247 9.952C20.9487 10.64 20.6607 11.512 20.6607 12.568ZM39.9851 9.256C38.9131 9.256 38.1131 9.64 37.5851 10.408C37.0571 11.16 36.7931 12.16 36.7931 13.408V19H33.1931V6.088H36.7931V7.792C37.2571 7.264 37.8331 6.816 38.5211 6.448C39.2251 6.08 39.9371 5.888 40.6571 5.872L40.6811 9.256H39.9851ZM46.7602 19H43.1602V6.088H46.7602V19ZM43.4482 4.456C43.0482 4.04 42.8482 3.536 42.8482 2.944C42.8482 2.352 43.0482 1.856 43.4482 1.456C43.8642 1.04 44.3682 0.831999 44.9602 0.831999C45.5522 0.831999 46.0482 1.04 46.4482 1.456C46.8642 1.856 47.0722 2.352 47.0722 2.944C47.0722 3.536 46.8642 4.04 46.4482 4.456C46.0482 4.856 45.5522 5.056 44.9602 5.056C44.3682 5.056 43.8642 4.856 43.4482 4.456ZM53.7481 19L48.6361 6.064H52.3801L55.5961 14.2L58.8121 6.064H62.5561L57.4441 19H53.7481ZM75.2345 19H71.8505V17.44C70.9225 18.608 69.7705 19.192 68.3945 19.192C67.0345 19.192 65.8905 18.8 64.9625 18.016C64.0345 17.216 63.5705 16.16 63.5705 14.848C63.5705 13.52 64.0505 12.528 65.0105 11.872C65.9705 11.216 67.2825 10.888 68.9465 10.888H71.6345V10.816C71.6345 9.44 70.9065 8.752 69.4505 8.752C68.8265 8.752 68.1625 8.88 67.4585 9.136C66.7705 9.376 66.1865 9.68 65.7065 10.048L64.0985 7.72C65.7945 6.488 67.7305 5.872 69.9065 5.872C71.4745 5.872 72.7545 6.264 73.7465 7.048C74.7385 7.832 75.2345 9.072 75.2345 10.768V19ZM71.6105 14.08V13.456H69.3545C67.9145 13.456 67.1945 13.904 67.1945 14.8C67.1945 15.264 67.3625 15.624 67.6985 15.88C68.0505 16.12 68.5465 16.24 69.1865 16.24C69.8265 16.24 70.3865 16.048 70.8665 15.664C71.3625 15.264 71.6105 14.736 71.6105 14.08ZM82.7719 8.68V14.464C82.7719 14.96 82.8999 15.352 83.1559 15.64C83.4119 15.912 83.7159 16.048 84.0679 16.048C84.7399 16.048 85.3079 15.744 85.7719 15.136L87.1159 17.656C85.9959 18.68 84.8119 19.192 83.5639 19.192C82.3319 19.192 81.2839 18.784 80.4199 17.968C79.5719 17.152 79.1479 16.04 79.1479 14.632V8.68H77.6359V6.088H79.1479V2.224H82.7719V6.088H85.8919V8.68H82.7719ZM100.33 17.128C98.8742 18.504 97.1622 19.192 95.1942 19.192C93.2422 19.192 91.6262 18.592 90.3462 17.392C89.0662 16.176 88.4262 14.552 88.4262 12.52C88.4262 10.488 89.0742 8.872 90.3702 7.672C91.6822 6.472 93.2262 5.872 95.0022 5.872C96.7782 5.872 98.2822 6.408 99.5142 7.48C100.762 8.552 101.386 10.024 101.386 11.896V13.816H91.9782C92.0902 14.52 92.4582 15.096 93.0822 15.544C93.7062 15.992 94.4102 16.216 95.1942 16.216C96.4582 16.216 97.4982 15.792 98.3142 14.944L100.33 17.128ZM97.7382 11.248C97.6582 10.48 97.3702 9.888 96.8742 9.472C96.3782 9.056 95.7702 8.848 95.0502 8.848C94.3462 8.848 93.6982 9.064 93.1062 9.496C92.5142 9.928 92.1702 10.512 92.0742 11.248H97.7382ZM107.682 11.8V19H104.082V6.088H107.682V7.528C108.77 6.424 109.994 5.872 111.354 5.872C112.714 5.872 113.85 6.352 114.762 7.312C115.69 8.272 116.154 9.552 116.154 11.152V19H112.554V11.704C112.554 9.72 111.826 8.728 110.37 8.728C109.65 8.728 109.018 8.992 108.474 9.52C107.946 10.032 107.682 10.792 107.682 11.8Z" fill="#252B42"/>
</svg>
